<svg width="220" height="22" viewBox="0 0 220 22" fill="none" xmlns="http://www.w3.org/2000/svg">
<path d="M220 21.6112H213.711V19.8615C212.313 21.2872 210.38 22 207.911 22C206.048 22 204.65 21.5464 203.718 20.6392C202.787 19.7319 202.321 18.5655 202.321 17.1399V5.96176H208.61V14.6451C208.61 16.1139 209.425 16.8483 211.056 16.8483C212.034 16.8483 212.919 16.4379 213.711 15.6171V5.96176H220V21.6112Z" fill="#7329BE"/>
<path d="M192.739 22C191.202 22 189.665 21.784 188.128 21.352C186.59 20.8984 185.367 20.3152 184.459 19.6024L186.975 15.6819C187.65 16.1787 188.605 16.6323 189.84 17.0427C191.074 17.4531 192.145 17.6583 193.054 17.6583C194.172 17.6583 194.731 17.4315 194.731 16.9779C194.731 16.7619 194.486 16.5891 193.997 16.4595C193.531 16.3299 192.949 16.2435 192.25 16.2003C191.552 16.1355 190.783 16.0059 189.944 15.8115C189.106 15.6171 188.337 15.3687 187.638 15.0663C186.94 14.7423 186.346 14.2239 185.856 13.5111C185.391 12.7983 185.158 11.9343 185.158 10.9191C185.158 9.42863 185.821 8.16501 187.149 7.1282C188.5 6.09138 190.352 5.57298 192.705 5.57298C195.383 5.57298 197.817 6.24259 200.007 7.58181L197.701 11.3727C197.119 10.9406 196.373 10.5626 195.465 10.2386C194.58 9.91464 193.671 9.75264 192.739 9.75264C192.297 9.75264 191.924 9.82823 191.621 9.97944C191.319 10.109 191.167 10.2602 191.167 10.433C191.167 10.649 191.493 10.811 192.146 10.9191C192.798 11.0271 193.59 11.1567 194.521 11.3079C195.476 11.4591 196.42 11.6859 197.351 11.9883C198.306 12.2907 199.11 12.8415 199.762 13.6407C200.414 14.4183 200.741 15.4119 200.741 16.6215C200.741 18.1983 200.018 19.4944 198.574 20.5096C197.13 21.5032 195.185 22 192.739 22Z" fill="#7329BE"/>
<path d="M182.495 20.963C181.75 21.6542 180.876 21.9998 179.875 21.9998C178.873 21.9998 177.999 21.6542 177.254 20.963C176.509 20.2718 176.136 19.4618 176.136 18.533C176.136 17.6042 176.509 16.7942 177.254 16.1029C177.999 15.4117 178.873 15.0661 179.875 15.0661C180.876 15.0661 181.75 15.4117 182.495 16.1029C183.24 16.7942 183.613 17.6042 183.613 18.533C183.613 19.4618 183.24 20.2718 182.495 20.963Z" fill="#7329BE"/>
<path d="M172.462 19.6024C170.738 21.2008 168.432 22 165.544 22C162.656 22 160.35 21.2008 158.626 19.6024C156.926 18.0039 156.076 16.0599 156.076 13.7703C156.076 11.4807 156.926 9.54743 158.626 7.97061C160.35 6.37219 162.656 5.57298 165.544 5.57298C168.432 5.57298 170.738 6.37219 172.462 7.97061C174.186 9.54743 175.048 11.4807 175.048 13.7703C175.048 16.0599 174.186 18.0039 172.462 19.6024ZM165.544 16.8483C166.499 16.8483 167.245 16.5675 167.78 16.0059C168.316 15.4227 168.584 14.6775 168.584 13.7703C168.584 12.8847 168.316 12.1611 167.78 11.5995C167.245 11.0163 166.499 10.7246 165.544 10.7246C164.612 10.7246 163.879 11.0163 163.343 11.5995C162.807 12.1611 162.539 12.8847 162.539 13.7703C162.539 14.6775 162.807 15.4227 163.343 16.0059C163.879 16.5675 164.612 16.8483 165.544 16.8483Z" fill="#7329BE"/>
<path d="M154.419 21.6112H148.13V12.9603C148.13 11.4699 147.314 10.7246 145.684 10.7246C144.682 10.7246 143.786 11.1351 142.994 11.9559V21.6112H136.704V5.96178H142.994V7.74381C144.368 6.29659 146.301 5.57298 148.793 5.57298C150.657 5.57298 152.054 6.03738 152.986 6.9662C153.941 7.87341 154.419 9.05062 154.419 10.4978V21.6112Z" fill="#7329BE"/>
<path d="M133.896 21.6111H127.607V12.8954C127.607 11.4482 126.791 10.7245 125.161 10.7245C124.159 10.7245 123.263 11.135 122.471 11.9558V21.6111H116.182V0H122.471V7.7437C123.845 6.29648 125.778 5.57288 128.271 5.57288C130.134 5.57288 131.531 6.02648 132.463 6.9337C133.418 7.81931 133.896 8.98572 133.896 10.4329V21.6111Z" fill="#7329BE"/>
<path d="M107.623 22C104.898 22 102.638 21.244 100.845 19.732C99.0511 18.2199 98.1544 16.2327 98.1544 13.7703C98.1544 11.3295 99.0511 9.35303 100.845 7.84101C102.638 6.32899 104.898 5.57298 107.623 5.57298C109.37 5.57298 110.861 5.87538 112.095 6.48019C113.33 7.0634 114.226 7.74381 114.785 8.52142L110.732 12.0531C110.104 11.1675 109.16 10.7246 107.902 10.7246C106.971 10.7246 106.179 10.9947 105.527 11.5347C104.898 12.0531 104.583 12.7983 104.583 13.7703C104.583 14.7423 104.898 15.4983 105.527 16.0383C106.179 16.5783 106.971 16.8483 107.902 16.8483C109.114 16.8483 110.057 16.3947 110.732 15.4875L114.785 19.0516C114.226 19.8292 113.33 20.5204 112.095 21.1252C110.861 21.7084 109.37 22 107.623 22Z" fill="#7329BE"/>
<path d="M96.4965 21.6112H90.2074V19.8615C88.8098 21.2872 86.8765 22 84.4075 22C82.5441 22 81.1465 21.5464 80.2148 20.6392C79.2831 19.7319 78.8172 18.5655 78.8172 17.1399V5.96176H85.1063V14.6451C85.1063 16.1139 85.9215 16.8483 87.552 16.8483C88.5303 16.8483 89.4155 16.4379 90.2074 15.6171V5.96176H96.4965V21.6112Z" fill="#7329BE"/>
<path d="M78.2014 21.6111H70.4798L67.5799 16.5566L66.357 18.0794V21.6111H60.0679V0H66.357V11.5346L70.2352 5.96168H77.8171L72.0171 13.0898L78.2014 21.6111Z" fill="#7329BE"/>
<path d="M50.4861 22C48.9487 22 47.4114 21.784 45.8741 21.352C44.3368 20.8984 43.1139 20.3152 42.2055 19.6024L44.7211 15.6819C45.3966 16.1787 46.3516 16.6323 47.5861 17.0427C48.8206 17.4531 49.8921 17.6583 50.8005 17.6583C51.9186 17.6583 52.4776 17.4315 52.4776 16.9779C52.4776 16.7619 52.233 16.5891 51.7439 16.4595C51.278 16.3299 50.6957 16.2435 49.9969 16.2003C49.2981 16.1355 48.5295 16.0059 47.6909 15.8115C46.8524 15.6171 46.0837 15.3687 45.3849 15.0663C44.6861 14.7423 44.0922 14.2239 43.603 13.5111C43.1372 12.7983 42.9042 11.9343 42.9042 10.9191C42.9042 9.42863 43.5681 8.16501 44.8958 7.1282C46.2468 6.09138 48.0985 5.57298 50.4511 5.57298C53.1298 5.57298 55.5639 6.24259 57.7534 7.58181L55.4474 11.3727C54.8651 10.9406 54.1197 10.5626 53.2113 10.2386C52.3262 9.91464 51.4178 9.75264 50.4861 9.75264C50.0435 9.75264 49.6708 9.82823 49.368 9.97944C49.0652 10.109 48.9138 10.2602 48.9138 10.433C48.9138 10.649 49.2399 10.811 49.8921 10.9191C50.5443 11.0271 51.3362 11.1567 52.268 11.3079C53.223 11.4591 54.1663 11.6859 55.098 11.9883C56.053 12.2907 56.8566 12.8415 57.5088 13.6407C58.161 14.4183 58.4871 15.4119 58.4871 16.6215C58.4871 18.1983 57.7651 19.4944 56.3209 20.5096C54.8767 21.5032 52.9318 22 50.4861 22Z" fill="#7329BE"/>
<path d="M33.6115 22C30.9096 22 28.6618 21.2548 26.8683 19.7644C25.098 18.2739 24.2129 16.2759 24.2129 13.7703C24.2129 11.4591 25.0747 9.51503 26.7984 7.93821C28.5221 6.36139 30.7232 5.57298 33.4019 5.57298C35.9408 5.57298 38.0372 6.37219 39.691 7.97061C41.3448 9.54743 42.1716 11.6859 42.1716 14.3859V15.5847H30.7116C30.8979 16.1247 31.3056 16.5891 31.9345 16.9779C32.5634 17.3667 33.367 17.5611 34.3453 17.5611C34.881 17.5611 35.5565 17.4531 36.3717 17.2371C37.2103 17.0211 37.8275 16.7619 38.2235 16.4595L40.809 20.056C40.0171 20.6824 38.9572 21.1684 37.6296 21.514C36.3019 21.838 34.9625 22 33.6115 22ZM36.197 11.8911C35.8709 10.6382 34.9392 10.0118 33.4019 10.0118C31.9345 10.0118 31.0144 10.6382 30.6417 11.8911H36.197Z" fill="#7329BE"/>
<path d="M22.431 21.6111H15.6528L7.05772 10.6597V21.6111H0V0H7.26736L15.3733 10.2385V0H22.431V21.6111Z" fill="#7329BE"/>
</svg>
