<svg width="20" height="20" viewBox="0 0 20 20" fill="none" xmlns="http://www.w3.org/2000/svg">
<path d="M6.66667 2.5L6.66667 5.83333M13.3333 2.5V5.83333M2.5 9.16667L17.5 9.16667M6.5 18.1667H13.5C14.9001 18.1667 15.6002 18.1667 16.135 17.8942C16.6054 17.6545 16.9878 17.272 17.2275 16.8016C17.5 16.2669 17.5 15.5668 17.5 14.1667V8.16667C17.5 6.76654 17.5 6.06647 17.2275 5.53169C16.9878 5.06129 16.6054 4.67883 16.135 4.43915C15.6002 4.16667 14.9001 4.16667 13.5 4.16667L6.5 4.16667C5.09987 4.16667 4.3998 4.16667 3.86502 4.43915C3.39462 4.67883 3.01217 5.06129 2.77248 5.53169C2.5 6.06647 2.5 6.76654 2.5 8.16667L2.5 14.1667C2.5 15.5668 2.5 16.2669 2.77248 16.8016C3.01217 17.272 3.39462 17.6545 3.86502 17.8942C4.3998 18.1667 5.09987 18.1667 6.5 18.1667Z" stroke="black" stroke-width="1.5" stroke-linecap="round"/>
</svg>
