<svg width="27" height="28" viewBox="0 0 27 28" fill="none" xmlns="http://www.w3.org/2000/svg">
<path d="M11.4448 19C11.4448 21.1478 9.70366 22.8889 7.55588 22.8889C5.40811 22.8889 3.66699 21.1478 3.66699 19C3.66699 16.8522 5.40811 15.1111 7.55588 15.1111C9.70366 15.1111 11.4448 16.8522 11.4448 19ZM11.4448 19L23.667 19M15.8892 7.88889C15.8892 10.0367 17.6303 11.7778 19.7781 11.7778C21.9259 11.7778 23.667 10.0367 23.667 7.88889C23.667 5.74111 21.9259 4 19.7781 4C17.6303 4 15.8892 5.74111 15.8892 7.88889ZM15.8892 7.88889L3.66699 7.88889" stroke="black" stroke-width="1.33333" stroke-linecap="round" stroke-linejoin="round"/>
</svg>
