<svg width="18" height="16" viewBox="0 0 18 16" fill="none" xmlns="http://www.w3.org/2000/svg">
<path d="M8.99986 15.25C8.46236 14.7733 7.85486 14.2775 7.21236 13.75H7.20402C4.94152 11.9 2.37736 9.80666 1.24486 7.29832C0.872788 6.49976 0.67561 5.63093 0.666513 4.74999C0.664029 3.54123 1.14883 2.38248 2.01136 1.53563C2.87389 0.688782 4.04134 0.22532 5.24986 0.249991C6.23371 0.251545 7.19639 0.535892 8.02319 1.06916C8.3865 1.30497 8.71521 1.5902 8.99986 1.91666C9.2861 1.59149 9.6149 1.30641 9.97736 1.06916C10.8038 0.535786 11.7662 0.251423 12.7499 0.249991C13.9584 0.22532 15.1258 0.688782 15.9884 1.53563C16.8509 2.38248 17.3357 3.54123 17.3332 4.74999C17.3247 5.63234 17.1275 6.50265 16.7549 7.30249C15.6224 9.81082 13.059 11.9033 10.7965 13.75L10.7882 13.7567C10.1449 14.2808 9.53819 14.7767 9.00069 15.2567L8.99986 15.25ZM5.24986 1.91666C4.47362 1.90694 3.72492 2.20403 3.16652 2.74332C2.62851 3.2718 2.32782 3.99586 2.33312 4.74999C2.34263 5.39208 2.48805 6.02487 2.75986 6.60666C3.29445 7.68891 4.01578 8.66837 4.89069 9.49999C5.71652 10.3333 6.66652 11.14 7.48819 11.8183C7.71569 12.0058 7.94736 12.195 8.17902 12.3842L8.32486 12.5033C8.54736 12.685 8.77736 12.8733 8.99986 13.0583L9.01069 13.0483L9.01569 13.0442H9.02069L9.02819 13.0383H9.03236H9.03652L9.05152 13.0258L9.08569 12.9983L9.09152 12.9933L9.10069 12.9867H9.10569L9.11319 12.98L9.66652 12.5258L9.81152 12.4067C10.0457 12.2158 10.2774 12.0267 10.5049 11.8392C11.3265 11.1608 12.2774 10.355 13.1032 9.51749C13.9782 8.68629 14.6996 7.70709 15.234 6.62499C15.5108 6.03816 15.6582 5.39875 15.6666 4.74999C15.67 3.99819 15.3695 3.2769 14.8332 2.74999C14.2759 2.20826 13.527 1.90873 12.7499 1.91666C11.8015 1.9086 10.8948 2.30613 10.2582 3.00916L8.99986 4.45916L7.74152 3.00916C7.10491 2.30613 6.19825 1.9086 5.24986 1.91666Z" fill="#1A1A1A"/>
</svg>
