<svg width="20" height="21" viewBox="0 0 20 21" fill="none" xmlns="http://www.w3.org/2000/svg">
<path fill-rule="evenodd" clip-rule="evenodd" d="M15.821 14.8711C15.58 15.5533 14.622 16.1177 13.858 16.2827C13.335 16.3937 12.653 16.4816 10.355 15.5293C7.774 14.46 4.19 10.651 4.19 8.11621C4.19 6.82582 4.934 5.32324 6.235 5.32324C6.861 5.32324 6.999 5.33545 7.205 5.82959C7.446 6.41177 8.034 7.84612 8.104 7.99316C8.393 8.59634 7.80999 8.94945 7.38699 9.47461C7.25199 9.63265 7.099 9.80358 7.27 10.0977C7.44 10.3857 8.028 11.3441 8.892 12.1133C10.008 13.1076 10.913 13.425 11.237 13.5601C11.478 13.6601 11.766 13.6368 11.942 13.4487C12.165 13.2077 12.442 12.8077 12.724 12.4136C12.923 12.1315 13.176 12.0963 13.441 12.1963C13.62 12.2583 15.895 13.3148 15.991 13.4839C16.062 13.6069 16.062 14.1889 15.821 14.8711ZM10.002 0.75H9.99699C4.48399 0.75 0 5.23535 0 10.75C0 12.9367 0.75 15 1.75 16.375L0.375 20.625L4.75 19.25C6.375 20.25 8 20.75 10.002 20.75C15.515 20.75 20 16.2646 20 10.75C20 5.23535 15.515 0.75 10.002 0.75Z" fill="#FAFAFA"/>
</svg>
