<svg width="21" height="21" viewBox="0 0 21 21" fill="none" xmlns="http://www.w3.org/2000/svg">
<path d="M13.2583 7.99183C15.5922 10.3281 15.5601 14.0738 13.2724 16.3742C13.2681 16.3789 13.263 16.384 13.2583 16.3887L10.6333 19.0137C8.31807 21.3289 4.55131 21.3286 2.23643 19.0137C-0.0788087 16.6989 -0.0788087 12.9317 2.23643 10.6168L3.68588 9.16737C4.07025 8.783 4.73221 9.03847 4.75205 9.58167C4.77736 10.2739 4.9015 10.9694 5.13057 11.6411C5.20815 11.8685 5.15272 12.1201 4.98279 12.29L4.47158 12.8012C3.37682 13.896 3.34248 15.6785 4.42647 16.784C5.52115 17.9004 7.32045 17.907 8.42354 16.8039L11.0485 14.1793C12.1497 13.0781 12.1451 11.2982 11.0485 10.2016C10.904 10.0573 10.7583 9.94518 10.6446 9.86686C10.5641 9.8116 10.4977 9.7383 10.4506 9.65281C10.4034 9.56731 10.377 9.47199 10.3732 9.37444C10.3578 8.96167 10.504 8.53632 10.8302 8.21014L11.6526 7.38768C11.8683 7.17202 12.2066 7.14554 12.4567 7.32007C12.7431 7.52005 13.0113 7.74483 13.2583 7.99183ZM18.7636 2.48628C16.4487 0.171356 12.6819 0.171044 10.3667 2.48628L7.7417 5.11128C7.73701 5.11597 7.73193 5.12104 7.72764 5.12573C5.4399 7.4262 5.40783 11.1719 7.7417 13.5082C7.98868 13.7551 8.25692 13.9799 8.5433 14.1799C8.79338 14.3544 9.13174 14.3279 9.34736 14.1123L10.1698 13.2898C10.496 12.9636 10.6422 12.5383 10.6267 12.1255C10.623 12.028 10.5965 11.9326 10.5494 11.8471C10.5023 11.7616 10.4358 11.6883 10.3554 11.6331C10.2416 11.5548 10.096 11.4426 9.95143 11.2983C8.85483 10.2017 8.85022 8.42182 9.95143 7.32061L12.5764 4.696C13.6795 3.59292 15.4788 3.59956 16.5735 4.71593C17.6575 5.82139 17.6232 7.60397 16.5284 8.69874L16.0172 9.20995C15.8472 9.37987 15.7918 9.63143 15.8694 9.85886C16.0985 10.5305 16.2226 11.226 16.2479 11.9183C16.2678 12.4615 16.9297 12.7169 17.3141 12.3326L18.7635 10.8831C21.0788 8.56831 21.0788 4.80112 18.7636 2.48628Z" fill="#FAFAFA"/>
</svg>
