<svg width="20" height="20" viewBox="0 0 20 20" fill="none" xmlns="http://www.w3.org/2000/svg">
<path d="M10 0.0625C4.64844 0.0625 0.3125 4.39844 0.3125 9.75C0.3125 15.1016 4.64844 19.4375 10 19.4375C15.3516 19.4375 19.6875 15.1016 19.6875 9.75C19.6875 4.39844 15.3516 0.0625 10 0.0625ZM14.7578 6.69922L13.168 14.1914C13.0508 14.7227 12.7344 14.8516 12.293 14.6016L9.87109 12.8164L8.70312 13.9414C8.57422 14.0703 8.46484 14.1797 8.21484 14.1797L8.38672 11.7148L12.875 7.66016C13.0703 7.48828 12.832 7.39062 12.5742 7.5625L7.02734 11.0547L4.63672 10.3086C4.11719 10.1445 4.10547 9.78906 4.74609 9.53906L14.0859 5.9375C14.5195 5.78125 14.8984 6.04297 14.7578 6.69922Z" fill="#FAFAFA"/>
</svg>
