<svg width="14" height="19" viewBox="0 0 14 19" fill="none" xmlns="http://www.w3.org/2000/svg">
<path d="M10.3335 3.91668L9.15016 5.10001L7.82516 3.77501V13.0833H6.17516V3.77501L4.85016 5.10001L3.66683 3.91668L7.00016 0.583344L10.3335 3.91668ZM13.6668 8.08334V17.25C13.6668 18.1667 12.9168 18.9167 12.0002 18.9167H2.00016C1.55814 18.9167 1.13421 18.7411 0.821651 18.4285C0.509091 18.116 0.333496 17.692 0.333496 17.25V8.08334C0.333496 7.15834 1.07516 6.41668 2.00016 6.41668H4.50016V8.08334H2.00016V17.25H12.0002V8.08334H9.50016V6.41668H12.0002C12.4422 6.41668 12.8661 6.59227 13.1787 6.90483C13.4912 7.21739 13.6668 7.64132 13.6668 8.08334Z" fill="#0A0A0A"/>
</svg>
